<svg width="802" height="180" viewBox="0 0 802 180" fill="none" xmlns="http://www.w3.org/2000/svg">
<path d="M296.449 162.663L303.538 138.083L295.242 115.249H314.467L330.417 71.4706L314.467 59.6897L379.596 59.8352L404.85 124.994H410.264L416.222 162.663H384.174L376.79 140.992H336.767L330.417 162.663H296.449ZM346.514 115.54H368.667L358.92 86.5966H355.819L346.514 115.54Z" fill="black"/>
<path d="M473.68 164.118C456.45 164.118 444.045 160.724 436.463 153.937C428.882 147.052 425.091 136.047 425.091 120.921V83.106L414.233 59.6897H425.091H458.173V113.649C458.173 118.109 458.518 122.085 459.207 125.575C459.896 128.969 461.373 131.635 463.638 133.575C465.902 135.514 469.348 136.484 473.976 136.484C478.701 136.484 482.197 135.611 484.461 133.866C486.726 132.12 488.203 129.551 488.892 126.157C489.581 122.763 489.926 118.594 489.926 113.649V83.106L479.083 59.6897H489.926H522.269V120.921C522.269 130.811 520.644 138.956 517.395 145.356C514.146 151.658 508.977 156.361 501.888 159.463C494.799 162.566 485.397 164.118 473.68 164.118Z" fill="black"/>
<path d="M541.44 162.663L526.726 133.575L541.44 139.392V87.3966L537.314 88.9237L541.44 59.6897H573.931L584.957 58.2353L573.931 87.3966V115.103L572.454 135.029H575.408L606.132 142.941L612.33 132.12L625.326 153.355L618.089 162.663H541.44Z" fill="black"/>
<path d="M640.142 162.663V87.4693L610.605 88.9237L603.485 55.5882L610.605 59.6897H702.908L709.36 93.287L702.908 88.9237L672.633 87.4693V139.392L680.244 137.647L672.633 162.663H640.142Z" fill="black"/>
<path d="M753.866 164.118C748.451 164.118 743.085 163.633 737.768 162.663C732.55 161.791 727.922 160.627 723.886 159.173C719.849 157.718 716.944 156.264 715.172 154.809V139.392L699.929 117.867L715.172 124.412C718.914 126.448 723.098 128.29 727.725 129.939C732.353 131.587 737.03 132.896 741.756 133.866C746.58 134.738 751.158 135.175 755.49 135.175C761.496 135.175 764.499 133.817 764.499 131.102C764.499 129.745 763.859 128.63 762.579 127.757C761.398 126.787 759.281 125.769 756.229 124.703C753.177 123.636 748.845 122.279 743.233 120.63C736.734 118.594 731.172 116.461 726.544 114.231C722.015 112.001 718.52 109.14 716.058 105.65C713.695 102.159 712.514 97.5048 712.514 91.6871C712.514 81.6031 716.6 73.5068 724.772 67.3982C732.944 61.2896 744.906 58.2353 760.659 58.2353C763.81 58.2353 767.158 58.3807 770.702 58.6716C774.345 58.8655 777.249 59.1564 779.416 59.5443L802 55.5882L790.197 68.8235V93.7233L752.389 84.2696C748.451 84.2696 746.482 85.5785 746.482 88.1965C746.482 90.2327 747.712 91.9295 750.174 93.287C752.734 94.5475 757.312 96.2928 763.909 98.5229C772.671 101.432 779.612 104.438 784.732 107.54C789.95 110.546 793.692 113.988 795.956 117.867C798.221 121.745 799.353 126.351 799.353 131.684C799.353 141.38 795.563 149.234 787.981 155.246C780.4 161.16 769.028 164.118 753.866 164.118Z" fill="black"/>
<path d="M19.7835 162.443V126.074V89.7059L24.6826 74.0084L9.89177 77.1907H0V50.5599L50.1183 43.8604L51.7669 53.9097L50.1183 70.6586L52.9373 143.824L50.1183 162.443H19.7835Z" fill="black"/>
<path d="M107.869 164.118C104.352 164.118 101 164.006 97.8126 163.783C94.7352 163.559 91.8226 163.224 89.0749 162.778L68.3022 153.231L66.1716 116.765L76.5453 126.6L109.518 135.812C115.893 135.812 120.509 134.751 123.366 132.63C126.224 130.396 127.653 127.605 127.653 124.255C127.653 121.24 126.609 119.119 124.52 117.891C122.432 116.662 118.915 116.048 113.969 116.048H93.5262L72.7888 89.7059L93.5262 89.0825H111.991C115.728 89.0825 118.695 88.3008 120.893 86.7376C123.202 85.1744 124.356 82.997 124.356 80.2055C124.356 76.6324 123.311 74.1759 121.223 72.836C119.135 71.3844 116.167 70.6586 112.321 70.6586C106.825 70.6586 101.55 71.2169 96.4937 72.3335C91.4379 73.4501 86.9317 74.79 82.975 76.3533C79.0183 77.8048 75.776 79.0889 73.2481 80.2055L59.5545 49.1177L73.2481 51.7323C75.4462 50.6158 78.5786 49.3317 82.6452 47.8801C86.7119 46.4285 91.5478 45.1444 97.1532 44.0278C102.868 42.9112 109.078 42.353 115.783 42.353C128.202 42.353 137.6 45.1444 143.974 50.7274C150.459 56.1987 153.701 63.9591 153.701 74.0084C153.701 79.8147 152.492 84.6161 150.074 88.4125C147.766 92.0973 145.238 95.0562 142.49 97.2894C147.107 99.411 150.953 102.593 154.031 106.836C157.218 110.968 158.812 116.718 158.812 124.088C158.812 150.774 141.831 164.118 107.869 164.118Z" fill="black"/>
<path d="M202.563 180L161.605 60.3632L163.349 42.8571L154.779 25.7143L137.637 0L198.012 25.7143L230.095 140.339L231.916 154.286L234.646 140.339L266.275 25.7143L249.057 8.57143H300.482L317.624 25.7143L302.227 60.3632L261.496 180H202.563Z" fill="black"/>
</svg>
