<svg width="864" height="359" viewBox="0 0 864 359" fill="none" xmlns="http://www.w3.org/2000/svg">
<path d="M74.4762 11.6702L15.1666 270.443H588.312C571.31 268.958 557.887 262.991 549.89 252.112C548.424 250.09 547.157 247.93 546.107 245.663C545.429 243.983 544.771 242.296 544.134 240.6C542.431 235.179 541.75 229.16 542.057 222.75C542.908 204.879 551.295 183.622 565.824 161.36C581.257 137.702 603.623 112.909 631.316 89.8998C637.614 84.6494 644.065 79.5842 650.659 74.7107C658.798 68.7405 667.152 63.0705 675.706 57.7121C706.552 38.291 737.324 24.7015 764.592 17.8002C738.534 26.3008 709.262 40.7317 680.341 60.376C679.302 61.0796 678.274 61.7988 677.251 62.5076C661.205 73.628 646.666 85.4339 633.98 97.3592C593.156 135.744 571.578 175.519 581.384 198.821C582.085 200.426 582.916 201.955 583.887 203.404C594.429 218.905 620.546 221.584 653.645 213.263C655.929 212.68 658.203 212.059 660.466 211.398C671.038 208.345 682.262 204.224 693.824 199.143C696.602 197.912 699.412 196.651 702.244 195.306C702.532 195.168 702.805 195.033 703.096 194.877C739.588 176.747 767.635 155.885 773.705 143.349C775.034 140.623 775.354 138.297 774.45 136.474C770.119 127.693 739.809 133.626 703.096 149.529C700.146 150.809 697.16 152.125 694.143 153.527C696.6 151.247 699.155 148.957 701.764 146.706C706 143.049 710.354 139.53 714.819 136.155C721.763 130.894 728.966 125.985 736.402 121.446C769.86 96.2063 786.773 72.3274 783.241 63.4684C782.577 61.799 781.164 60.6512 778.978 59.9502C772.004 57.7329 759.274 60.3812 743.81 66.719C731.054 71.9508 716.402 79.7089 701.551 89.3675L699.526 90.6994L699.152 90.9122L692.012 95.6534L696.114 88.142C702.203 76.9983 712.118 65.3716 724.467 54.5706C733.52 46.6723 743.862 39.231 755 32.7192C759.125 30.2912 763.337 28.016 767.629 25.8984C771.836 23.8513 776.119 21.9675 780.471 20.2513C792.708 15.4116 806.15 9.29969 816.338 8.5C815.411 8.5 785.96 11.6702 785.96 11.6702H74.4762ZM536.464 12.0441C534.792 37.5485 539.738 74.908 550.96 116.383C552.992 123.923 555.177 131.421 557.513 138.873C558.996 143.562 560.525 148.181 562.096 152.727C561.174 154.08 560.247 155.428 559.377 156.778C545.377 178.232 537.196 198.51 535.132 216.142C529.212 196.326 524.759 174.623 522.236 151.608C521.519 145.013 520.958 138.494 520.584 132.05C517.822 85.2548 523.931 42.8322 536.464 12.0441ZM257.071 45.2442C257.39 45.2364 257.704 45.2442 258.031 45.2442H321.072C326.459 45.2442 330.627 46.2543 333.594 48.2821C336.544 50.3203 337.65 52.9582 336.951 56.1673L329.438 90.1126H307.215L314.516 57.0735H258.88L238.789 147.877L231.543 180.758H287.121L287.176 180.543L298.314 130.24H272.202L274.705 118.889H323.04L309.186 181.662C308.994 182.541 308.67 183.386 308.225 184.167C307.082 186.247 305.088 188.031 302.31 189.498C298.457 191.525 293.846 192.535 288.456 192.535H225.467C220.08 192.535 215.912 191.525 212.945 189.498C209.995 187.467 208.871 184.876 209.588 181.662L237.351 56.1673C238.068 52.9582 240.3 50.3202 244.172 48.2794C244.309 48.2067 244.462 48.1912 244.598 48.1211C248.131 46.3503 252.28 45.3558 257.071 45.2442ZM355.869 45.2442H435.215C440.537 45.2442 444.718 46.2543 447.685 48.2821C450.671 50.3203 451.814 52.9582 451.094 56.1673L436.282 123.097C435.581 126.288 433.296 128.887 429.407 130.931C425.52 132.982 420.942 134.02 415.604 134.02H357.946L346.807 184.274L344.998 192.533H323.255L324.907 185.073L355.869 45.2442ZM465.484 45.2442H487.226L462.607 156.459L457.224 180.758H509.233C509.778 184.746 510.417 188.664 511.1 192.533H432.87L439.05 164.611L465.481 45.2442H465.484ZM374.999 57.0735L360.558 122.191H414.753L429.139 57.0735H374.999ZM259.433 210.765C259.649 210.757 259.862 210.765 260.075 210.765C262.598 210.765 264.803 211.206 266.576 212.045C268.471 212.93 269.822 214.249 270.575 215.989C271.307 217.676 271.499 219.592 271.107 221.69L270.946 222.49H264.712L264.764 221.742C264.925 220.278 264.743 219.125 264.18 218.333C264.097 218.222 264.007 218.115 263.912 218.014C263.749 217.854 263.571 217.71 263.38 217.585C262.507 217.038 261.142 216.734 259.381 216.734C257.045 216.734 255.3 217.141 254.106 217.959C252.948 218.762 252.213 219.655 251.977 220.73C251.738 221.82 252.13 222.394 252.402 222.703L252.454 222.755C252.8 223.048 253.999 223.741 257.73 224.619C261.105 225.44 263.344 226.174 264.605 226.805C266.514 227.776 267.851 229.038 268.547 230.588C269.248 232.123 269.401 233.919 268.975 235.864C268.547 237.759 267.583 239.502 266.15 241.14C264.681 242.822 262.837 244.137 260.768 244.977C258.571 245.887 256.218 246.357 253.841 246.361C250.772 246.361 248.305 245.897 246.379 244.977C244.441 244.089 242.903 242.512 242.063 240.553C241.246 238.645 241.069 236.477 241.531 234.106L241.69 233.359H247.817L247.765 234.106C247.612 235.521 247.765 236.664 248.139 237.516C248.497 238.336 249.178 239.014 250.268 239.541C251.429 240.104 252.88 240.395 254.534 240.395C256.017 240.395 257.372 240.146 258.584 239.702C259.779 239.276 260.726 238.712 261.407 237.996C262.071 237.279 262.463 236.524 262.632 235.706C262.803 234.971 262.762 234.35 262.474 233.839C262.149 233.294 261.508 232.811 260.5 232.401L255.279 230.856C252.363 230.121 250.398 229.422 249.255 228.724C247.705 227.802 246.586 226.621 246.007 225.206C245.426 223.809 245.366 222.259 245.74 220.571C246.163 218.688 247.062 216.945 248.352 215.508C249.775 213.91 251.567 212.684 253.573 211.938C255.45 211.229 257.431 210.833 259.436 210.765H259.433ZM315.388 210.871C315.726 210.845 316.043 210.871 316.401 210.871L320.238 211.297L321.516 211.406L319.652 216.147L319.278 216.895L316.349 216.627C315.482 216.627 314.846 216.76 314.428 217.053C314.402 217.074 314.35 217.139 314.324 217.16C314.247 217.225 314.176 217.296 314.111 217.373C313.851 217.71 313.54 218.312 313.311 219.398C313.311 219.398 313.2 219.86 313.098 220.252H317.681L316.507 225.528H312.031L307.503 245.832H301.321C301.321 245.832 305.338 227.795 305.849 225.528H302.279L303.453 220.252H306.968C307.14 219.517 307.394 218.598 307.394 218.598C307.771 216.895 308.163 215.669 308.674 214.815C309.386 213.619 310.396 212.628 311.605 211.938C312.631 211.341 313.927 210.983 315.388 210.871ZM330.149 211.139L328.124 220.252H332.122L330.949 225.528H326.953C326.628 226.992 324.076 238.37 324.076 238.37C324.076 238.37 323.863 239.735 323.863 240.127V240.234H323.915L324.554 240.286L327.488 240.073L327.166 244.816L327.218 245.668L323.011 246.148C321.339 246.148 320.111 245.876 319.226 245.297C318.79 245.026 318.413 244.669 318.12 244.247C317.827 243.826 317.622 243.349 317.52 242.846C317.486 242.656 317.414 242.384 317.414 241.992C317.414 241.226 317.559 239.927 318.052 237.676C318.052 237.676 320.293 227.641 320.771 225.525H317.839L319.013 220.249H321.944C322.217 219.024 323.17 214.815 323.17 214.815L328.124 212.203L330.149 211.139ZM133.781 211.352H157.761L156.429 217.321H138.895C138.623 218.531 137.53 223.433 137.138 225.206H152.327L150.992 231.175H135.803C135.481 232.658 132.555 245.829 132.555 245.829H126.106L133.781 211.352ZM165.914 219.772C166.155 219.743 166.417 219.772 166.659 219.772C168.193 219.772 169.611 220.239 170.977 221.21L171.828 221.797L168.526 227.231L167.617 226.592C166.984 226.177 166.244 225.955 165.488 225.954C164.839 225.954 164.236 226.182 163.621 226.592C162.972 227.018 162.432 227.584 162.024 228.35C161.292 229.726 160.753 231.196 160.425 232.72L157.548 245.832H151.363L157.068 220.249H162.824C162.824 220.249 162.624 221.023 162.556 221.314C162.829 221.109 163.117 220.828 163.356 220.675C164.182 220.182 165.054 219.873 165.914 219.767V219.772ZM184.244 219.772C184.618 219.743 184.984 219.772 185.363 219.772C188.842 219.772 191.475 220.992 193.197 223.396C194.271 224.946 194.85 226.865 194.85 229.15C194.85 230.412 194.695 231.772 194.37 233.252L193.89 235.119H176.52C176.486 235.473 176.467 235.828 176.465 236.184C176.465 237.516 176.738 238.562 177.317 239.328C177.592 239.704 177.914 240.042 178.278 240.288C178.963 240.735 179.851 240.982 180.887 240.982C182.099 240.987 183.286 240.635 184.299 239.969C185.285 239.338 186.233 238.328 187.069 236.931H193.677L193.09 238.209C191.828 240.766 190.068 242.763 187.869 244.178C185.67 245.593 183.039 246.361 180.142 246.361C176.375 246.361 173.568 245.141 171.828 242.739C170.107 240.384 169.736 237.131 170.657 233.039C171.576 228.88 173.415 225.554 176.092 223.235C178.491 221.156 181.214 220 184.244 219.772ZM212.008 219.772C212.381 219.743 212.747 219.772 213.127 219.772C216.606 219.772 219.238 220.992 220.96 223.396C222.035 224.946 222.614 226.865 222.614 229.15C222.614 230.396 222.458 231.733 222.133 233.2L221.653 235.119H204.283C204.262 235.358 204.244 235.573 204.229 235.812C204.216 235.901 204.234 236.036 204.229 236.132V236.184C204.229 236.441 204.265 236.692 204.281 236.931C204.366 237.902 204.618 238.715 205.08 239.328C205.169 239.447 205.252 239.595 205.348 239.702C206.127 240.538 207.233 240.979 208.65 240.979C209.912 240.979 211.039 240.634 212.062 239.966C213.049 239.336 213.996 238.331 214.832 236.929H221.495L220.853 238.209C219.592 240.766 217.831 242.763 215.632 244.178C213.433 245.593 210.803 246.361 207.905 246.361C204.138 246.361 201.331 245.141 199.592 242.739C198.467 241.205 197.94 239.25 197.94 236.931C197.968 235.622 198.129 234.319 198.421 233.042C199.34 228.895 201.126 225.554 203.803 223.235C206.202 221.156 208.978 220 212.008 219.772ZM287.625 219.772C288.007 219.743 288.357 219.772 288.744 219.772C292.291 219.772 295.017 220.971 296.793 223.342C298.548 225.712 298.974 228.908 298.07 232.933C297.369 236.072 296.362 238.606 294.981 240.447C293.609 242.296 291.819 243.793 289.757 244.816C287.756 245.824 285.549 246.353 283.31 246.361C279.693 246.361 277.001 245.125 275.261 242.739C274.137 241.22 273.558 239.265 273.558 236.931C273.558 235.669 273.695 234.327 274.035 232.829C275.061 228.259 277.151 224.777 280.218 222.542C282.471 220.917 284.959 219.977 287.625 219.772ZM381.254 219.772C381.703 219.746 382.121 219.772 382.586 219.772C384.736 219.772 386.423 219.99 387.701 220.517C389.066 221.062 390.035 221.836 390.58 222.755C391.107 223.625 391.38 224.694 391.38 226.006L390.738 229.895L389.568 235.171C388.56 239.673 388.339 241.361 388.287 241.992C388.236 242.846 388.313 243.677 388.555 244.445L388.981 245.829H382.692L382.427 245.029C382.324 244.656 382.355 244.178 382.321 243.752C381.127 244.484 379.932 245.136 378.857 245.51C377.271 246.055 375.625 246.361 373.953 246.361C371.055 246.361 368.908 245.608 367.612 244.123C366.623 243.033 366.174 241.698 366.174 240.182C366.174 239.6 366.252 239.001 366.387 238.37C366.675 237.071 367.202 235.872 368.038 234.8C368.822 233.768 369.799 232.9 370.915 232.242C371.996 231.613 373.164 231.146 374.381 230.856L378.164 230.217C381.08 229.874 383.256 229.451 384.824 228.991C384.858 228.82 384.93 228.618 384.93 228.618C385.18 227.519 385.148 226.696 384.878 226.273C384.858 226.247 384.793 226.19 384.772 226.167C384.715 226.104 384.627 226.011 384.559 225.954C383.918 225.445 382.822 225.206 381.36 225.206C379.706 225.206 378.483 225.478 377.632 226.006C376.796 226.535 376.022 227.501 375.339 228.885H368.892L369.477 227.605C370.245 225.832 371.159 224.36 372.301 223.235C373.444 222.108 374.989 221.236 376.778 220.623C378.227 220.148 379.731 219.862 381.254 219.772ZM408.272 219.772C408.513 219.743 408.776 219.772 409.017 219.772C410.57 219.772 412.024 220.239 413.387 221.21L414.187 221.797L410.884 227.231L409.975 226.592C409.361 226.18 408.638 225.958 407.898 225.954C407.249 225.954 406.61 226.182 405.979 226.592C405.33 227.018 404.863 227.584 404.434 228.35C403.709 229.729 403.171 231.199 402.835 232.72L399.906 245.832H393.724L399.423 220.249H405.177C405.177 220.249 405.034 221.023 404.964 221.314C405.237 221.109 405.509 220.828 405.764 220.675C406.524 220.197 407.379 219.887 408.269 219.767L408.272 219.772ZM426.551 219.772C426.922 219.743 427.288 219.772 427.667 219.772C431.146 219.772 433.795 220.992 435.503 223.396C436.594 224.946 437.154 226.865 437.154 229.15C437.154 230.412 436.947 231.772 436.622 233.252L436.196 235.119H418.824C418.79 235.477 418.717 235.862 418.717 236.184C418.717 237.516 419.006 238.562 419.569 239.328C419.657 239.447 419.792 239.595 419.888 239.702L420.101 239.914C420.864 240.608 421.9 240.979 423.191 240.979C424.403 240.985 425.59 240.633 426.603 239.966C427.592 239.338 428.521 238.331 429.373 236.929H436.035L435.397 238.209C434.135 240.766 432.356 242.763 430.173 244.178C427.955 245.593 425.361 246.361 422.446 246.361C418.678 246.361 415.926 245.141 414.189 242.739C412.465 240.384 412.058 237.131 412.961 233.039C413.883 228.88 415.666 225.554 418.343 223.235C420.758 221.156 423.523 220 426.548 219.772H426.551ZM333.241 220.249H339.582C339.582 220.249 340.363 235.428 340.381 235.649C340.638 235.103 340.836 234.649 340.862 234.584L347.841 220.249H353.652C353.652 220.249 354.184 235.244 354.184 235.329C354.353 235.023 362.124 220.249 362.124 220.249H368.412L354.555 245.827H348.853L348.269 231.172C345.914 235.999 341.129 245.827 341.129 245.827H335.266L333.241 220.249ZM184.351 225.097C182.884 225.159 181.547 225.689 180.3 226.696C179.314 227.48 178.646 228.558 178.117 229.734H188.614C188.632 229.547 188.666 229.319 188.666 229.147C188.666 228.176 188.495 227.421 188.188 226.909C187.438 225.681 186.327 225.097 184.67 225.097C184.571 225.097 184.449 225.092 184.351 225.097ZM212.114 225.097C210.647 225.159 209.31 225.689 208.064 226.696C207.077 227.48 206.428 228.558 205.883 229.734H216.377C216.395 229.547 216.432 229.319 216.432 229.147C216.432 228.176 216.276 227.421 215.951 226.909C215.798 226.661 215.62 226.428 215.419 226.216C214.708 225.481 213.726 225.099 212.433 225.099C212.335 225.099 212.213 225.089 212.114 225.097ZM426.87 225.097C425.327 225.143 423.844 225.706 422.659 226.696C421.688 227.48 421.023 228.558 420.475 229.734H430.92C430.939 229.547 430.972 229.319 430.972 229.147C430.972 228.176 430.817 227.421 430.495 226.909C429.76 225.699 428.63 225.115 426.976 225.097H426.87ZM287.254 225.203C285.844 225.372 284.533 226.016 283.307 227.125C281.843 228.451 280.778 230.542 280.166 233.304C279.931 234.3 279.806 235.319 279.792 236.342C279.792 237.552 280.025 238.502 280.485 239.219C280.607 239.403 280.771 239.598 280.911 239.751C281.669 240.556 282.728 240.979 284.055 240.979C285.776 240.979 287.295 240.335 288.744 239.006C290.211 237.658 291.257 235.547 291.888 232.717C292.467 230.126 292.387 228.192 291.569 226.964C290.785 225.769 289.637 225.203 288.051 225.203C287.783 225.203 287.513 225.172 287.254 225.203ZM383.546 234.53C381.83 234.982 380.084 235.321 378.322 235.542C376.72 235.781 375.578 236.033 374.913 236.287C374.332 236.526 373.867 236.859 373.475 237.3C373.113 237.692 372.855 238.169 372.727 238.686C372.693 238.892 372.675 239.102 372.675 239.273V239.325C372.675 239.367 372.67 239.447 372.675 239.486C372.686 239.564 372.706 239.681 372.727 239.751C372.735 239.777 372.771 239.834 372.779 239.857C372.8 239.904 372.81 239.974 372.834 240.018C372.86 240.063 372.912 240.135 372.94 240.177C372.987 240.239 373.044 240.333 373.101 240.392C373.527 240.867 374.379 241.083 375.607 241.083C376.952 241.083 378.25 240.828 379.442 240.231C380.576 239.667 381.548 238.824 382.266 237.78C382.778 237.064 383.188 235.963 383.546 234.53ZM58.0488 191.806L201.066 44.1433H224.421L189.889 191.806H170.678L180.485 149.3H120.529L79.7858 191.803L58.0488 191.806ZM135.1 134.09H184.135L193.181 97.0242C196.832 82.3182 200.347 70.0632 203.725 60.2592C196.974 68.7209 188.043 78.7585 176.93 90.3774L135.1 134.09Z" fill="white"/>
<path d="M540.522 243.627C541.213 245.406 541.906 247.185 542.625 248.922C543.737 251.284 545.022 253.543 546.564 255.651C554.898 266.982 568.859 273.187 586.585 274.732H605.65C611.993 274.219 618.3 273.342 624.542 272.105C635.833 269.898 647.805 266.504 660.234 261.971C670.068 258.376 679.718 254.299 689.151 249.755C710.537 239.499 732.632 226.278 754.307 210.321C761.322 205.156 768.18 199.781 774.871 194.202C780.792 189.28 786.573 184.192 792.207 178.943C807.624 164.087 819.261 148.996 825.851 135.75C832.716 121.952 834.087 110.154 828.463 102.723C825.015 98.1614 819.246 95.7157 811.82 95.1419C845.277 70.0347 864.776 39.5815 857.782 20.3811C855.562 14.2536 850.673 9.68395 843.662 7.15506C840.547 6.03341 837.041 5.32455 833.222 5H822.925C808.546 6.03856 787.64 11.1873 769.899 19.8775" stroke="white" stroke-width="8.52624"/>
<path d="M0 358.04H12.721L18.433 334.167H39.101L41.761 323.935H21.008L24.453 308.588H46.536L49.196 296.652H14.324L0 358.04ZM57.057 358.04L60.877 342.01C62.889 333.331 67.135 325.64 75.167 325.64C75.882 325.64 76.582 325.999 77.11 326.084L80.214 313.789C79.497 313.789 78.713 313.704 77.826 313.704C71.909 313.704 66.947 317.864 63.639 323.833H63.298C63.792 320.917 64.218 318.155 64.543 315.409H53.578C52.948 318.956 51.975 325.896 50.492 332.154L44.251 358.04H57.057ZM113.636 346.53C110.106 348.252 106.082 347.808 101.393 347.808C97.693 347.808 94.827 347.16 93.259 345.898C92.44 344.518 92.099 342.368 92.167 340.988C109.441 341.448 120.337 337.458 120.883 326.544C121.293 318.308 115.273 313.704 106.525 313.704C90.905 313.704 80.675 327.482 80.009 340.749C79.429 352.327 85.432 358.039 97.812 358.039C102.569 358.039 108.878 357.494 114.045 355.942L113.636 346.53ZM108.964 326.544C108.759 330.603 103.746 330.841 93.872 330.756C94.947 327.192 98.562 323.936 104.479 323.936C107.395 323.936 109.066 325.044 108.964 326.544ZM158.841 346.53C155.311 348.252 151.287 347.808 146.615 347.808C142.898 347.808 140.05 347.16 138.481 345.898C137.663 344.518 137.304 342.368 137.373 340.988C154.663 341.448 165.543 337.458 166.106 326.544C166.515 318.308 160.496 313.704 151.748 313.704C136.111 313.704 125.879 327.482 125.214 340.749C124.652 352.327 130.654 358.039 143.017 358.039C147.792 358.039 154.101 357.494 159.267 355.942L158.841 346.53ZM154.186 326.544C153.982 330.603 148.968 330.841 139.078 330.756C140.169 327.192 143.768 323.936 149.684 323.936C152.6 323.936 154.288 325.044 154.186 326.544ZM224.663 358.04C224.765 352.634 226.061 344.142 227.408 338.566L232.882 315.409C229.404 314.233 223.981 313.704 218.762 313.704C197.584 313.704 187.08 329.392 186.347 344.091C185.887 353.316 190.883 358.04 198.658 358.04C203.688 358.04 209.368 355.601 213.784 348.269H213.971C213.631 351.799 213.221 355.226 212.999 358.039H224.663V358.04ZM215.915 333.69C213.425 344.534 208.344 347.808 204.558 347.808C201.028 347.808 199.494 345.302 199.698 341.653C200.108 333.416 206.622 323.935 214.841 323.935C216.171 323.935 217.211 323.697 218.183 323.458L215.915 333.689V333.69ZM233.002 356.028C235.457 357.938 240.607 357.954 245.978 358.04C257.454 358.125 266.117 353.112 266.628 343.903C266.918 337.765 262.161 334.133 257.506 331.694C254.146 330.074 252.458 328.522 252.543 326.714C252.663 324.276 254.948 323.935 258.307 323.935C262.093 323.935 265.127 324.395 266.867 324.737L270.312 315.494C268.351 314.318 264.429 313.704 259.398 313.704C248.263 313.704 240.112 319.587 239.652 328.522C239.379 334.047 243.352 337.765 248.161 340.288C252.049 342.284 253.379 343.818 253.277 345.984C253.157 348.167 251.213 347.808 247.683 347.808C243.54 347.808 238.953 347.263 236.531 346.888L233.002 356.028ZM301.04 358.04L311.356 315.41H298.721L288.336 358.04H301.04ZM306.957 310.294C311.288 310.294 315.142 306.713 315.381 300.574C315.585 296.413 312.891 294.947 308.918 294.947C304.774 294.947 300.988 297.641 300.768 301.665C300.562 305.724 303.257 310.294 306.957 310.294ZM325.425 358.04L329.926 338.839C332.263 329.068 337.293 325.641 341.436 325.641C344.711 325.641 345.666 327.039 345.512 329.068C345.417 330.715 345.189 332.352 344.83 333.962L339.1 358.04H351.821L357.858 332.785C358.318 330.603 358.83 327.345 358.932 325.368C359.307 317.678 355.471 314.881 348.411 314.881C342.75 314.881 337.241 317.507 332.893 323.202H332.723L333.883 315.409H322.663C321.929 319.059 320.991 323.475 319.661 328.625L312.704 358.04H325.425ZM380.162 358.04H392.883L398.613 334.167H419.263L421.923 323.935H401.171L404.615 308.588H426.698L429.358 296.652H394.486L380.162 358.04ZM437.219 358.04L441.039 342.01C443.051 333.331 447.297 325.64 455.329 325.64C456.045 325.64 456.744 325.999 457.272 326.084L460.376 313.789C459.66 313.789 458.876 313.704 457.989 313.704C452.071 313.704 447.109 317.864 443.801 323.833H443.46C443.955 320.917 444.38 318.155 444.705 315.409H433.74C433.126 318.956 432.137 325.896 430.654 332.154L424.413 358.04H437.219ZM493.798 346.53C490.268 348.252 486.244 347.808 481.555 347.808C477.855 347.808 474.99 347.16 473.421 345.898C472.602 344.518 472.261 342.368 472.329 340.988C489.603 341.448 500.499 337.458 501.045 326.544C501.455 318.308 495.435 313.704 486.687 313.704C471.067 313.704 460.837 327.482 460.171 340.749C459.591 352.327 465.611 358.039 477.974 358.039C482.731 358.039 489.058 357.494 494.207 355.942L493.798 346.53ZM489.126 326.544C488.921 330.603 483.908 330.841 474.035 330.756C475.109 327.192 478.724 323.936 484.641 323.936C487.557 323.936 489.228 325.044 489.126 326.544ZM539.004 346.53C535.474 348.252 531.449 347.808 526.777 347.808C523.06 347.808 520.212 347.16 518.643 345.898C517.825 344.518 517.467 342.368 517.535 340.988C534.825 341.448 545.705 337.458 546.268 326.544C546.678 318.308 540.658 313.704 531.91 313.704C516.273 313.704 506.042 327.482 505.377 340.749C504.814 352.327 510.817 358.039 523.179 358.039C527.954 358.039 534.263 357.494 539.429 355.942L539.004 346.53ZM534.348 326.544C534.144 330.603 529.13 330.841 519.24 330.756C520.331 327.192 523.93 323.936 529.847 323.936C532.763 323.936 534.451 325.044 534.348 326.544ZM589.546 294.947L584.755 314.317C583.015 313.602 580.747 313.704 578.974 313.704C562.638 313.704 551.077 327.687 550.309 342.829C549.798 353.504 555.493 358.039 562.826 358.039C567.958 358.039 573.364 355.772 577.456 349.906H577.626L576.655 358.04H588.216C588.745 352.924 589.853 346.836 591.098 341.277L602.165 294.947H589.546ZM579.588 336.588C577.593 344.995 572.886 347.808 569.169 347.808C565.469 347.808 563.405 345.234 563.661 340.646C564.087 332.154 569.919 323.936 577.508 323.936C579.639 323.936 581.464 324.259 582.47 324.736L579.588 336.588ZM618.552 358.04C633.388 358.04 644.83 346.802 645.632 331.507C646.126 321.377 639.816 313.704 628.17 313.704C612.789 313.704 601.756 326.152 600.988 341.192C600.46 352.14 607.519 358.04 618.552 358.04ZM620.547 347.808C616.217 347.808 613.829 345.046 614.085 340.919C614.425 334.047 618.672 323.935 625.987 323.935C631.034 323.935 632.587 327.806 632.382 331.609C632.006 339.112 627.436 347.809 620.547 347.809V347.808ZM661.439 358.04L666.043 338.566C667.97 329.886 672.778 323.936 677.093 323.936C680.196 323.936 681.049 326.203 680.895 329.17C680.81 330.705 680.469 332.427 680.111 334.133L674.415 358.04H686.693L691.297 338.48C693.411 329.528 697.947 323.935 702.177 323.935C705.092 323.935 706.303 326.015 706.167 328.983C706.081 330.705 705.723 332.598 705.28 334.32L699.755 358.04H712.118L718.069 332.785C718.529 330.517 719.058 326.988 719.143 325.18C719.518 317.677 715.853 313.704 709.236 313.704C703.575 313.704 698.066 316.262 693.889 321.65C693.735 317.762 690.956 313.704 684.067 313.704C678.491 313.704 673.17 316.228 668.907 321.94H668.737L669.879 315.41H658.932C658.216 319.058 657.346 323.475 656.016 328.625L649.161 358.04H661.439Z" fill="white"/>
</svg>
